<svg width="314" height="78" viewBox="0 0 314 78" fill="none" xmlns="http://www.w3.org/2000/svg">
<line x1="4.58301" y1="1.33459" x2="50.4163" y2="1.33459" stroke="black" stroke-width="1.5"/>
<line x1="4.58301" y1="5.67249" x2="50.4163" y2="5.67249" stroke="black" stroke-width="1.5"/>
<line x1="5.33301" y1="2.08459" x2="5.33301" y2="6.42262" stroke="black" stroke-width="1.5"/>
<line x1="50.0203" y1="1" x2="50.0203" y2="5.33803" stroke="black" stroke-width="1.5"/>
<line x1="4.58301" y1="6.08801" x2="-0.000323772" y2="6.08801" stroke="black" stroke-width="1.5"/>
<line x1="55" y1="6.08801" x2="50.4167" y2="6.08801" stroke="black" stroke-width="1.5"/>
<line x1="0.75" y1="6.42249" x2="0.75" y2="10.7605" stroke="black" stroke-width="1.5"/>
<line x1="54.6045" y1="6.42249" x2="54.6045" y2="10.7605" stroke="black" stroke-width="1.5"/>
<line y1="10.0106" x2="55" y2="10.0106" stroke="black" stroke-width="1.5"/>
<line y1="-0.75" x2="6.60601" y2="-0.75" transform="matrix(0.173423 0.984847 -0.987785 0.15582 2.29199 10.7606)" stroke="black" stroke-width="1.5"/>
<line y1="-0.75" x2="6.60601" y2="-0.75" transform="matrix(-0.173423 0.984847 -0.987785 -0.15582 51.5625 9.67609)" stroke="black" stroke-width="1.5"/>
<line x1="1.14526" y1="16.5176" x2="53.8536" y2="16.5176" stroke="black" stroke-width="1.5"/>
<line y1="-0.75" x2="57.7637" y2="-0.75" transform="matrix(0.0991828 0.995069 -0.996037 0.0889366 1.14526 17.2676)" stroke="black" stroke-width="1.5"/>
<line y1="-0.75" x2="58.8654" y2="-0.75" transform="matrix(-0.116593 0.99318 -0.994516 -0.104588 53.8545 16.1831)" stroke="black" stroke-width="1.5"/>
<line x1="8.02051" y1="73.9965" x2="48.1247" y2="73.9965" stroke="black" stroke-width="1.5"/>
<line x1="9.91626" y1="74.7465" x2="9.91626" y2="78" stroke="black" stroke-width="1.5"/>
<line x1="45.4375" y1="74.7465" x2="45.4375" y2="78" stroke="black" stroke-width="1.5"/>
<line x1="10.3125" y1="77.25" x2="44.6875" y2="77.25" stroke="black" stroke-width="1.5"/>
<g style="mix-blend-mode:multiply">
<path d="M37.9029 49.9009C38.3386 49.1854 38.0422 48.3723 37.676 47.7588C37.2771 47.0907 36.618 46.354 35.7876 45.5953C34.1179 44.0698 31.6271 42.3395 28.7122 40.7493C25.7972 39.1591 22.9668 37.9865 20.7352 37.3837C19.6253 37.0838 18.6215 36.9133 17.8107 36.9215C17.0663 36.9291 16.1744 37.0939 15.7387 37.8094C15.3029 38.525 15.5993 39.338 15.9655 39.9515C16.3644 40.6197 17.0235 41.3563 17.8539 42.115C19.5236 43.6405 22.0144 45.3708 24.9294 46.961C27.8443 48.5512 30.6747 49.7239 32.9063 50.3267C34.0162 50.6265 35.02 50.797 35.8308 50.7888C36.5753 50.7812 37.4671 50.6164 37.9029 49.9009Z" fill="white"/>
<path d="M37.9029 49.9009C38.3386 49.1854 38.0422 48.3723 37.676 47.7588C37.2771 47.0907 36.618 46.354 35.7876 45.5953C34.1179 44.0698 31.6271 42.3395 28.7122 40.7493C25.7972 39.1591 22.9668 37.9865 20.7352 37.3837C19.6253 37.0838 18.6215 36.9133 17.8107 36.9215C17.0663 36.9291 16.1744 37.0939 15.7387 37.8094C15.3029 38.525 15.5993 39.338 15.9655 39.9515C16.3644 40.6197 17.0235 41.3563 17.8539 42.115C19.5236 43.6405 22.0144 45.3708 24.9294 46.961C27.8443 48.5512 30.6747 49.7239 32.9063 50.3267C34.0162 50.6265 35.02 50.797 35.8308 50.7888C36.5753 50.7812 37.4671 50.6164 37.9029 49.9009Z" stroke="black" stroke-width="1.5"/>
</g>
<g style="mix-blend-mode:multiply">
<path d="M38.4828 38.064C38.0722 37.3296 37.2042 37.0926 36.4287 37.0353C35.6025 36.9743 34.5783 37.0901 33.4458 37.3354C31.1694 37.8286 28.281 38.8848 25.3047 40.3758C22.3284 41.8668 19.7814 43.5336 18.0704 45.0379C17.2192 45.7862 16.5422 46.5228 16.1309 47.2037C15.7448 47.8429 15.4638 48.6555 15.8745 49.3899C16.2852 50.1242 17.1531 50.3613 17.9286 50.4185C18.7548 50.4795 19.7791 50.3638 20.9115 50.1184C23.1879 49.6252 26.0764 48.569 29.0527 47.078C32.0289 45.587 34.576 43.9203 36.2869 42.416C37.1381 41.6676 37.8152 40.931 38.2265 40.2501C38.6125 39.611 38.8935 38.7983 38.4828 38.064Z" fill="white"/>
<path d="M38.4828 38.064C38.0722 37.3296 37.2042 37.0926 36.4287 37.0353C35.6025 36.9743 34.5783 37.0901 33.4458 37.3354C31.1694 37.8286 28.281 38.8848 25.3047 40.3758C22.3284 41.8668 19.7814 43.5336 18.0704 45.0379C17.2192 45.7862 16.5422 46.5228 16.1309 47.2037C15.7448 47.8429 15.4638 48.6555 15.8745 49.3899C16.2852 50.1242 17.1531 50.3613 17.9286 50.4185C18.7548 50.4795 19.7791 50.3638 20.9115 50.1184C23.1879 49.6252 26.0764 48.569 29.0527 47.078C32.0289 45.587 34.576 43.9203 36.2869 42.416C37.1381 41.6676 37.8152 40.931 38.2265 40.2501C38.6125 39.611 38.8935 38.7983 38.4828 38.064Z" stroke="black" stroke-width="1.5"/>
</g>
<g style="mix-blend-mode:multiply">
<path d="M26.8893 55.9802C27.3055 55.9794 27.6522 55.7934 27.9165 55.5589C28.176 55.3287 28.3904 55.0237 28.5709 54.6923C28.9323 54.029 29.2333 53.1192 29.4764 52.0593C29.9655 49.9275 30.2577 47.0206 30.2512 43.8366C30.2446 40.6525 29.9404 37.7468 29.4425 35.6168C29.195 34.5578 28.8903 33.6491 28.5261 32.9872C28.3442 32.6565 28.1286 32.3523 27.8681 32.123C27.6029 31.8896 27.2554 31.7048 26.8392 31.7056C26.423 31.7064 26.0763 31.8924 25.812 32.1269C25.5525 32.3572 25.3381 32.6622 25.1576 32.9935C24.7962 33.6568 24.4952 34.5667 24.2521 35.6266C23.763 37.7584 23.4708 40.6652 23.4773 43.8493C23.4839 47.0334 23.7881 49.9391 24.286 52.069C24.5335 53.128 24.8382 54.0367 25.2024 54.6987C25.3843 55.0293 25.5999 55.3335 25.8603 55.5628C26.1256 55.7963 26.4731 55.981 26.8893 55.9802Z" fill="white"/>
<path d="M26.8893 55.9802C27.3055 55.9794 27.6522 55.7934 27.9165 55.5589C28.176 55.3287 28.3904 55.0237 28.5709 54.6923C28.9323 54.029 29.2333 53.1192 29.4764 52.0593C29.9655 49.9275 30.2577 47.0206 30.2512 43.8366C30.2446 40.6525 29.9404 37.7468 29.4425 35.6168C29.195 34.5578 28.8903 33.6491 28.5261 32.9872C28.3442 32.6565 28.1286 32.3523 27.8681 32.123C27.6029 31.8896 27.2554 31.7048 26.8392 31.7056C26.423 31.7064 26.0763 31.8924 25.812 32.1269C25.5525 32.3572 25.3381 32.6622 25.1576 32.9935C24.7962 33.6568 24.4952 34.5667 24.2521 35.6266C23.763 37.7584 23.4708 40.6652 23.4773 43.8493C23.4839 47.0334 23.7881 49.9391 24.286 52.069C24.5335 53.128 24.8382 54.0367 25.2024 54.6987C25.3843 55.0293 25.5999 55.3335 25.8603 55.5628C26.1256 55.7963 26.4731 55.981 26.8893 55.9802Z" stroke="black" stroke-width="1.5"/>
</g>
<ellipse cx="26.4959" cy="44.3794" rx="1.14583" ry="1.08451" fill="black"/>
<path d="M70.9512 52C70.7592 52 70.5912 51.928 70.4472 51.784C70.3032 51.64 70.2312 51.472 70.2312 51.28L70.3032 50.884L79.4112 27.52C79.6032 27.04 79.9512 26.8 80.4552 26.8H81.6792C82.1832 26.8 82.5312 27.04 82.7232 27.52L91.8312 50.884L91.9032 51.28C91.9032 51.472 91.8312 51.64 91.6872 51.784C91.5432 51.928 91.3752 52 91.1832 52H90.4632C90.2472 52 90.0672 51.94 89.9232 51.82C89.8032 51.7 89.7192 51.58 89.6712 51.46L87.4392 45.7H74.6952L72.4632 51.46C72.4152 51.58 72.3192 51.7 72.1752 51.82C72.0552 51.94 71.8872 52 71.6712 52H70.9512ZM86.5752 43.54L81.0672 29.356L75.5592 43.54H86.5752ZM99.7582 52C99.5182 52 99.3262 51.928 99.1822 51.784C99.0382 51.64 98.9662 51.448 98.9662 51.208V28.96H91.8382C91.5982 28.96 91.4062 28.888 91.2622 28.744C91.1182 28.6 91.0462 28.408 91.0462 28.168V27.628C91.0462 27.388 91.1182 27.196 91.2622 27.052C91.4062 26.884 91.5982 26.8 91.8382 26.8H108.326C108.59 26.8 108.794 26.872 108.938 27.016C109.082 27.16 109.154 27.364 109.154 27.628V28.168C109.154 28.408 109.07 28.6 108.902 28.744C108.758 28.888 108.566 28.96 108.326 28.96H101.234V51.208C101.234 51.448 101.15 51.64 100.982 51.784C100.838 51.928 100.646 52 100.406 52H99.7582ZM121.432 52.36C115.264 52.36 112.096 49.048 111.928 42.424C111.904 41.704 111.892 40.696 111.892 39.4C111.892 38.104 111.904 37.096 111.928 36.376C112.024 33.112 112.912 30.64 114.592 28.96C116.272 27.28 118.552 26.44 121.432 26.44C124.312 26.44 126.592 27.28 128.272 28.96C129.952 30.64 130.84 33.112 130.936 36.376C130.984 37.816 131.008 38.824 131.008 39.4C131.008 39.976 130.984 40.984 130.936 42.424C130.768 49.048 127.6 52.36 121.432 52.36ZM121.432 50.2C123.592 50.2 125.308 49.552 126.58 48.256C127.876 46.936 128.572 44.932 128.668 42.244C128.716 40.804 128.74 39.856 128.74 39.4C128.74 38.944 128.716 37.996 128.668 36.556C128.572 33.868 127.876 31.876 126.58 30.58C125.284 29.26 123.568 28.6 121.432 28.6C119.296 28.6 117.58 29.26 116.284 30.58C114.988 31.876 114.292 33.868 114.196 36.556C114.172 37.276 114.16 38.224 114.16 39.4C114.16 40.576 114.172 41.524 114.196 42.244C114.292 44.932 114.976 46.936 116.248 48.256C117.544 49.552 119.272 50.2 121.432 50.2ZM137.564 52C137.324 52 137.12 51.928 136.952 51.784C136.808 51.64 136.736 51.448 136.736 51.208V27.628C136.736 27.364 136.808 27.16 136.952 27.016C137.12 26.872 137.324 26.8 137.564 26.8H138.464C138.824 26.8 139.076 26.956 139.22 27.268L147.392 43.18L155.6 27.268C155.768 26.956 156.02 26.8 156.356 26.8H157.22C157.484 26.8 157.688 26.872 157.832 27.016C157.976 27.16 158.048 27.364 158.048 27.628V51.208C158.048 51.448 157.964 51.64 157.796 51.784C157.652 51.928 157.46 52 157.22 52H156.572C156.332 52 156.14 51.928 155.996 51.784C155.852 51.64 155.78 51.448 155.78 51.208V31.696L148.904 45.232C148.688 45.712 148.316 45.952 147.788 45.952H146.996C146.468 45.952 146.096 45.712 145.88 45.232L139.004 31.696V51.208C139.004 51.448 138.932 51.64 138.788 51.784C138.644 51.928 138.452 52 138.212 52H137.564ZM165.617 52C165.377 52 165.185 51.928 165.041 51.784C164.897 51.64 164.825 51.448 164.825 51.208V27.592C164.825 27.352 164.897 27.16 165.041 27.016C165.185 26.872 165.377 26.8 165.617 26.8H166.301C166.541 26.8 166.733 26.872 166.877 27.016C167.021 27.16 167.093 27.352 167.093 27.592V51.208C167.093 51.448 167.021 51.64 166.877 51.784C166.733 51.928 166.541 52 166.301 52H165.617ZM182.393 52.36C179.273 52.36 176.933 51.484 175.373 49.732C173.813 47.956 172.973 45.58 172.853 42.604C172.829 41.956 172.817 40.9 172.817 39.436C172.817 37.948 172.829 36.868 172.853 36.196C172.973 33.22 173.813 30.856 175.373 29.104C176.933 27.328 179.273 26.44 182.393 26.44C184.529 26.44 186.305 26.836 187.721 27.628C189.137 28.396 190.181 29.38 190.853 30.58C191.549 31.756 191.933 32.968 192.005 34.216V34.288C192.005 34.48 191.933 34.636 191.789 34.756C191.645 34.876 191.465 34.936 191.249 34.936H190.529C190.097 34.936 189.833 34.684 189.737 34.18C189.281 32.14 188.453 30.7 187.253 29.86C186.053 29.02 184.433 28.6 182.393 28.6C180.137 28.6 178.385 29.236 177.137 30.508C175.889 31.78 175.217 33.736 175.121 36.376C175.097 37.024 175.085 38.02 175.085 39.364C175.085 40.708 175.097 41.728 175.121 42.424C175.217 45.064 175.889 47.02 177.137 48.292C178.385 49.564 180.137 50.2 182.393 50.2C184.433 50.2 186.053 49.78 187.253 48.94C188.453 48.1 189.281 46.66 189.737 44.62C189.833 44.116 190.097 43.864 190.529 43.864H191.249C191.465 43.864 191.645 43.936 191.789 44.08C191.957 44.2 192.029 44.368 192.005 44.584C191.933 45.832 191.549 47.056 190.853 48.256C190.181 49.432 189.137 50.416 187.721 51.208C186.305 51.976 184.529 52.36 182.393 52.36ZM215.123 52.36C212.003 52.36 209.663 51.484 208.103 49.732C206.543 47.956 205.703 45.58 205.583 42.604C205.559 41.956 205.547 40.9 205.547 39.436C205.547 37.948 205.559 36.868 205.583 36.196C205.703 33.22 206.543 30.856 208.103 29.104C209.663 27.328 212.003 26.44 215.123 26.44C217.259 26.44 219.035 26.836 220.451 27.628C221.867 28.396 222.911 29.38 223.583 30.58C224.279 31.756 224.663 32.968 224.735 34.216V34.288C224.735 34.48 224.663 34.636 224.519 34.756C224.375 34.876 224.195 34.936 223.979 34.936H223.259C222.827 34.936 222.563 34.684 222.467 34.18C222.011 32.14 221.183 30.7 219.983 29.86C218.783 29.02 217.163 28.6 215.123 28.6C212.867 28.6 211.115 29.236 209.867 30.508C208.619 31.78 207.947 33.736 207.851 36.376C207.827 37.024 207.815 38.02 207.815 39.364C207.815 40.708 207.827 41.728 207.851 42.424C207.947 45.064 208.619 47.02 209.867 48.292C211.115 49.564 212.867 50.2 215.123 50.2C217.163 50.2 218.783 49.78 219.983 48.94C221.183 48.1 222.011 46.66 222.467 44.62C222.563 44.116 222.827 43.864 223.259 43.864H223.979C224.195 43.864 224.375 43.936 224.519 44.08C224.687 44.2 224.759 44.368 224.735 44.584C224.663 45.832 224.279 47.056 223.583 48.256C222.911 49.432 221.867 50.416 220.451 51.208C219.035 51.976 217.259 52.36 215.123 52.36ZM238.572 52.36C232.404 52.36 229.236 49.048 229.068 42.424C229.044 41.704 229.032 40.696 229.032 39.4C229.032 38.104 229.044 37.096 229.068 36.376C229.164 33.112 230.052 30.64 231.732 28.96C233.412 27.28 235.692 26.44 238.572 26.44C241.452 26.44 243.732 27.28 245.412 28.96C247.092 30.64 247.98 33.112 248.076 36.376C248.124 37.816 248.148 38.824 248.148 39.4C248.148 39.976 248.124 40.984 248.076 42.424C247.908 49.048 244.74 52.36 238.572 52.36ZM238.572 50.2C240.732 50.2 242.448 49.552 243.72 48.256C245.016 46.936 245.712 44.932 245.808 42.244C245.856 40.804 245.88 39.856 245.88 39.4C245.88 38.944 245.856 37.996 245.808 36.556C245.712 33.868 245.016 31.876 243.72 30.58C242.424 29.26 240.708 28.6 238.572 28.6C236.436 28.6 234.72 29.26 233.424 30.58C232.128 31.876 231.432 33.868 231.336 36.556C231.312 37.276 231.3 38.224 231.3 39.4C231.3 40.576 231.312 41.524 231.336 42.244C231.432 44.932 232.116 46.936 233.388 48.256C234.684 49.552 236.412 50.2 238.572 50.2ZM254.668 52C254.428 52 254.236 51.928 254.092 51.784C253.948 51.64 253.876 51.448 253.876 51.208V27.628C253.876 27.388 253.948 27.196 254.092 27.052C254.236 26.884 254.428 26.8 254.668 26.8H268.564C268.828 26.8 269.032 26.872 269.176 27.016C269.32 27.16 269.392 27.364 269.392 27.628V28.168C269.392 28.408 269.308 28.6 269.14 28.744C268.996 28.888 268.804 28.96 268.564 28.96H256.144V38.644H267.844C268.108 38.644 268.312 38.716 268.456 38.86C268.6 39.004 268.672 39.208 268.672 39.472V40.012C268.672 40.252 268.588 40.444 268.42 40.588C268.276 40.732 268.084 40.804 267.844 40.804H256.144V51.208C256.144 51.448 256.06 51.64 255.892 51.784C255.748 51.928 255.556 52 255.316 52H254.668ZM275.199 52C274.959 52 274.767 51.928 274.623 51.784C274.479 51.64 274.407 51.448 274.407 51.208V27.628C274.407 27.388 274.479 27.196 274.623 27.052C274.767 26.884 274.959 26.8 275.199 26.8H289.239C289.503 26.8 289.707 26.872 289.851 27.016C289.995 27.16 290.067 27.364 290.067 27.628V28.168C290.067 28.408 289.983 28.6 289.815 28.744C289.671 28.888 289.479 28.96 289.239 28.96H276.675V38.14H288.447C288.711 38.14 288.915 38.212 289.059 38.356C289.203 38.5 289.275 38.704 289.275 38.968V39.508C289.275 39.748 289.191 39.94 289.023 40.084C288.879 40.228 288.687 40.3 288.447 40.3H276.675V49.84H289.527C289.791 49.84 289.995 49.912 290.139 50.056C290.283 50.2 290.355 50.404 290.355 50.668V51.208C290.355 51.448 290.271 51.64 290.103 51.784C289.959 51.928 289.767 52 289.527 52H275.199ZM296.504 52C296.264 52 296.072 51.928 295.928 51.784C295.784 51.64 295.712 51.448 295.712 51.208V27.628C295.712 27.388 295.784 27.196 295.928 27.052C296.072 26.884 296.264 26.8 296.504 26.8H310.544C310.808 26.8 311.012 26.872 311.156 27.016C311.3 27.16 311.372 27.364 311.372 27.628V28.168C311.372 28.408 311.288 28.6 311.12 28.744C310.976 28.888 310.784 28.96 310.544 28.96H297.98V38.14H309.752C310.016 38.14 310.22 38.212 310.364 38.356C310.508 38.5 310.58 38.704 310.58 38.968V39.508C310.58 39.748 310.496 39.94 310.328 40.084C310.184 40.228 309.992 40.3 309.752 40.3H297.98V49.84H310.832C311.096 49.84 311.3 49.912 311.444 50.056C311.588 50.2 311.66 50.404 311.66 50.668V51.208C311.66 51.448 311.576 51.64 311.408 51.784C311.264 51.928 311.072 52 310.832 52H296.504Z" fill="black"/>
</svg>
