<svg width="49" height="85" viewBox="0 0 49 85" fill="none" xmlns="http://www.w3.org/2000/svg">
<line y1="17.8613" x2="49" y2="17.8613" stroke="black"/>
<line y1="84.3776" x2="49" y2="84.3776" stroke="black"/>
<line x1="0.5" y1="18.3613" x2="0.5" y2="84.8775" stroke="black"/>
<line x1="48.2749" y1="17.1944" x2="48.2749" y2="83.7106" stroke="black"/>
<line x1="8.06445" y1="26.5032" x2="39.7103" y2="26.5032" stroke="black" stroke-width="1.5"/>
<line x1="8.06445" y1="29.3959" x2="39.7103" y2="29.3959" stroke="black" stroke-width="1.5"/>
<line x1="8.81445" y1="27.2532" x2="8.81445" y2="30.146" stroke="black" stroke-width="1.5"/>
<line x1="39.6692" y1="26.53" x2="39.6692" y2="29.4228" stroke="black" stroke-width="1.5"/>
<line x1="8.06445" y1="30.1727" x2="4.89987" y2="30.1727" stroke="black" stroke-width="1.5"/>
<line x1="42.875" y1="30.1727" x2="39.7104" y2="30.1727" stroke="black" stroke-width="1.5"/>
<line x1="5.6499" y1="30.1459" x2="5.6499" y2="33.0387" stroke="black" stroke-width="1.5"/>
<line x1="42.8337" y1="30.1459" x2="42.8337" y2="33.0387" stroke="black" stroke-width="1.5"/>
<line x1="4.8999" y1="32.2886" x2="42.8749" y2="32.2886" stroke="black" stroke-width="1.5"/>
<line y1="-0.75" x2="4.41062" y2="-0.75" transform="matrix(0.179373 0.983781 -0.988593 0.150611 6.48218 33.0387)" stroke="black" stroke-width="1.5"/>
<line y1="-0.75" x2="4.41062" y2="-0.75" transform="matrix(-0.179373 0.983781 -0.988593 -0.150611 40.5015 32.3155)" stroke="black" stroke-width="1.5"/>
<line x1="5.69116" y1="36.6277" x2="42.0839" y2="36.6277" stroke="black" stroke-width="1.5"/>
<line y1="-0.75" x2="38.5322" y2="-0.75" transform="matrix(0.10266 0.994717 -0.996302 0.0859163 5.69116 37.3777)" stroke="black" stroke-width="1.5"/>
<line y1="-0.75" x2="39.2724" y2="-0.75" transform="matrix(-0.120665 0.992693 -0.994882 -0.101046 42.0837 36.6545)" stroke="black" stroke-width="1.5"/>
<line x1="10.438" y1="74.9563" x2="38.1281" y2="74.9563" stroke="black" stroke-width="1.5"/>
<line x1="11.979" y1="75.7063" x2="11.979" y2="77.8758" stroke="black" stroke-width="1.5"/>
<line x1="36.5046" y1="75.7063" x2="36.5046" y2="77.8758" stroke="black" stroke-width="1.5"/>
<line x1="12.0203" y1="77.1259" x2="35.7546" y2="77.1259" stroke="black" stroke-width="1.5"/>
<g style="mix-blend-mode:multiply">
<path d="M31.2791 59.2486C31.66 58.6446 31.3842 57.9949 31.1281 57.5807C30.8369 57.1095 30.3641 56.6021 29.7839 56.0901C28.6144 55.0582 26.8787 53.8949 24.8551 52.8287C22.8316 51.7626 20.8603 50.9728 19.2973 50.565C18.5217 50.3627 17.8045 50.2431 17.2125 50.2489C16.692 50.254 15.9387 50.3615 15.5579 50.9655C15.177 51.5695 15.4528 52.2192 15.7089 52.6334C16.0001 53.1046 16.4729 53.612 17.0531 54.124C18.2226 55.1559 19.9583 56.3192 21.9819 57.3854C24.0055 58.4516 25.9767 59.2413 27.5397 59.6491C28.3153 59.8514 29.0325 59.9711 29.6245 59.9652C30.145 59.9601 30.8983 59.8526 31.2791 59.2486Z" fill="white"/>
<path d="M31.2791 59.2486C31.66 58.6446 31.3842 57.9949 31.1281 57.5807C30.8369 57.1095 30.3641 56.6021 29.7839 56.0901C28.6144 55.0582 26.8787 53.8949 24.8551 52.8287C22.8316 51.7626 20.8603 50.9728 19.2973 50.565C18.5217 50.3627 17.8045 50.2431 17.2125 50.2489C16.692 50.254 15.9387 50.3615 15.5579 50.9655C15.177 51.5695 15.4528 52.2192 15.7089 52.6334C16.0001 53.1046 16.4729 53.612 17.0531 54.124C18.2226 55.1559 19.9583 56.3192 21.9819 57.3854C24.0055 58.4516 25.9767 59.2413 27.5397 59.6491C28.3153 59.8514 29.0325 59.9711 29.6245 59.9652C30.145 59.9601 30.8983 59.8526 31.2791 59.2486Z" stroke="black" stroke-width="1.5"/>
</g>
<g style="mix-blend-mode:multiply">
<path d="M31.6828 51.1427C31.3276 50.5292 30.6 50.3631 30.0518 50.324C29.448 50.281 28.7154 50.363 27.9235 50.5287C26.328 50.8625 24.3154 51.5744 22.2486 52.5744C20.1819 53.5743 18.4061 54.6953 17.207 55.7135C16.6118 56.2189 16.1256 56.7266 15.825 57.2072C15.5522 57.6435 15.2933 58.287 15.6485 58.9004C16.0036 59.5138 16.7313 59.6799 17.2794 59.719C17.8832 59.762 18.6159 59.68 19.4077 59.5144C21.0032 59.1805 23.0158 58.4686 25.0826 57.4687C27.1494 56.4687 28.9251 55.3478 30.1243 54.3295C30.7195 53.8241 31.2056 53.3164 31.5062 52.8358C31.7791 52.3995 32.038 51.7561 31.6828 51.1427Z" fill="white"/>
<path d="M31.6828 51.1427C31.3276 50.5292 30.6 50.3631 30.0518 50.324C29.448 50.281 28.7154 50.363 27.9235 50.5287C26.328 50.8625 24.3154 51.5744 22.2486 52.5744C20.1819 53.5743 18.4061 54.6953 17.207 55.7135C16.6118 56.2189 16.1256 56.7266 15.825 57.2072C15.5522 57.6435 15.2933 58.287 15.6485 58.9004C16.0036 59.5138 16.7313 59.6799 17.2794 59.719C17.8832 59.762 18.6159 59.68 19.4077 59.5144C21.0032 59.1805 23.0158 58.4686 25.0826 57.4687C27.1494 56.4687 28.9251 55.3478 30.1243 54.3295C30.7195 53.8241 31.2056 53.3164 31.5062 52.8358C31.7791 52.3995 32.038 51.7561 31.6828 51.1427Z" stroke="black" stroke-width="1.5"/>
</g>
<g style="mix-blend-mode:multiply">
<path d="M23.4668 63.4423C24.1625 63.441 24.593 62.8758 24.8258 62.463C25.0923 61.9906 25.3071 61.3571 25.4775 60.6395C25.8212 59.1923 26.0241 57.2321 26.0195 55.0943C26.0149 52.9564 25.8036 50.997 25.4536 49.5511C25.2801 48.834 25.0626 48.2014 24.7941 47.7299C24.5595 47.318 24.1266 46.7543 23.4309 46.7555C22.7351 46.7568 22.3047 47.322 22.0718 47.7348C21.8053 48.2072 21.5906 48.8407 21.4202 49.5583C21.0764 51.0055 20.8736 52.9656 20.8782 55.1035C20.8828 57.2414 21.0941 59.2008 21.444 60.6467C21.6176 61.3638 21.835 61.9964 22.1036 62.4679C22.3382 62.8798 22.7711 63.4435 23.4668 63.4423Z" fill="white"/>
<path d="M23.4668 63.4423C24.1625 63.441 24.593 62.8758 24.8258 62.463C25.0923 61.9906 25.3071 61.3571 25.4775 60.6395C25.8212 59.1923 26.0241 57.2321 26.0195 55.0943C26.0149 52.9564 25.8036 50.997 25.4536 49.5511C25.2801 48.834 25.0626 48.2014 24.7941 47.7299C24.5595 47.318 24.1266 46.7543 23.4309 46.7555C22.7351 46.7568 22.3047 47.322 22.0718 47.7348C21.8053 48.2072 21.5906 48.8407 21.4202 49.5583C21.0764 51.0055 20.8736 52.9656 20.8782 55.1035C20.8828 57.2414 21.0941 59.2008 21.444 60.6467C21.6176 61.3638 21.835 61.9964 22.1036 62.4679C22.3382 62.8798 22.7711 63.4435 23.4668 63.4423Z" stroke="black" stroke-width="1.5"/>
</g>
<ellipse cx="23.194" cy="55.4566" rx="0.791146" ry="0.723181" fill="black"/>
<path d="M4.8999 17.1944C4.8999 -4.97767 44.0999 -3.81072 44.0999 17.1944" stroke="black"/>
</svg>
